<svg width="52" height="49" viewBox="0 0 52 49" fill="none" xmlns="http://www.w3.org/2000/svg">
<g clip-path="url(#clip0_1_32)">
<path d="M22.611 21.2745V20.6278C22.611 19.1278 23.8179 17.6545 25.3182 17.5145C27.1053 17.3411 28.6123 18.7478 28.6123 20.5011V21.4211" stroke="black" stroke-width="1.2" stroke-miterlimit="10" stroke-linecap="round" stroke-linejoin="round"/>
<path d="M23.6112 30.7545H27.6121C30.2927 30.7545 30.7728 29.6811 30.9129 28.3745L31.413 24.3745C31.593 22.7478 31.1263 21.4211 28.279 21.4211H22.9444C20.0971 21.4211 19.6303 22.7478 19.8104 24.3745L20.3105 28.3745C20.4505 29.6811 20.9306 30.7545 23.6112 30.7545Z" stroke="black" stroke-width="1.2" stroke-miterlimit="10" stroke-linecap="round" stroke-linejoin="round"/>
<path d="M27.524 24.5005H27.53" stroke="black" stroke-width="1.6" stroke-linecap="round" stroke-linejoin="round"/>
<path d="M22.9005 24.5005H22.9065" stroke="black" stroke-width="1.6" stroke-linecap="round" stroke-linejoin="round"/>
</g>
<defs>
<clipPath id="clip0_1_32">
<rect width="21.6704" height="16" fill="white" transform="translate(14.7765 16.5)"/>
</clipPath>
</defs>
</svg>
