<svg width="14" height="22" viewBox="0 0 14 22" fill="none" xmlns="http://www.w3.org/2000/svg">
<g clip-path="url(#clip0_1_262)">
<path fill-rule="evenodd" clip-rule="evenodd" d="M0 7.49651C0 10.743 2.35832 13.4427 5.44271 13.9901V9.27376H3.80989V7.46005H5.44271V6.00876C5.44271 4.37626 6.49479 3.46968 7.98282 3.46968C8.45416 3.46968 8.96255 3.54205 9.43383 3.61442V5.28339H8.59948C7.80104 5.28339 7.61979 5.68226 7.61979 6.19051V7.46005H9.36143L9.07135 9.27376H7.61979V13.9901C10.7042 13.4427 13.0625 10.7435 13.0625 7.49651C13.0625 3.88488 10.1234 0.930054 6.53125 0.930054C2.93906 0.930054 0 3.88488 0 7.49651Z" fill="white" fill-opacity="0.9"/>
</g>
<defs>
<clipPath id="clip0_1_262">
<rect width="13.0625" height="13.06" fill="white" transform="translate(0 0.930054)"/>
</clipPath>
</defs>
</svg>
